<mxfile host="app.diagrams.net" agent="Mozilla/5.0 (Macintosh; Intel Mac OS X 10.15; rv:129.0) Gecko/20100101 Firefox/129.0" version="24.7.7">
  <diagram name="Page-1" id="k1Ru1mt67Ha_gMI7oGyL">
    <mxGraphModel dx="2035" dy="623" grid="0" gridSize="10" guides="1" tooltips="1" connect="1" arrows="1" fold="1" page="1" pageScale="1" pageWidth="850" pageHeight="1100" math="0" shadow="0">
      <root>
        <mxCell id="0" />
        <mxCell id="1" parent="0" />
        <mxCell id="1_-yXjbjCRXEXu1w30gP-1" value="" style="rounded=0;whiteSpace=wrap;html=1;" vertex="1" parent="1">
          <mxGeometry x="7" y="51" width="791" height="81" as="geometry" />
        </mxCell>
        <mxCell id="1_-yXjbjCRXEXu1w30gP-2" value="" style="rounded=0;whiteSpace=wrap;html=1;" vertex="1" parent="1">
          <mxGeometry x="-290" y="130" width="120" height="60" as="geometry" />
        </mxCell>
        <mxCell id="1_-yXjbjCRXEXu1w30gP-20" style="edgeStyle=orthogonalEdgeStyle;rounded=0;orthogonalLoop=1;jettySize=auto;html=1;exitX=0.5;exitY=1;exitDx=0;exitDy=0;entryX=0.5;entryY=0;entryDx=0;entryDy=0;" edge="1" parent="1" source="1_-yXjbjCRXEXu1w30gP-3" target="1_-yXjbjCRXEXu1w30gP-8">
          <mxGeometry relative="1" as="geometry" />
        </mxCell>
        <mxCell id="1_-yXjbjCRXEXu1w30gP-3" value="生成生境图" style="rounded=0;whiteSpace=wrap;html=1;" vertex="1" parent="1">
          <mxGeometry x="169" y="342" width="120" height="36" as="geometry" />
        </mxCell>
        <mxCell id="1_-yXjbjCRXEXu1w30gP-19" style="edgeStyle=orthogonalEdgeStyle;rounded=0;orthogonalLoop=1;jettySize=auto;html=1;exitX=0.5;exitY=1;exitDx=0;exitDy=0;entryX=0.5;entryY=0;entryDx=0;entryDy=0;" edge="1" parent="1" source="1_-yXjbjCRXEXu1w30gP-4" target="1_-yXjbjCRXEXu1w30gP-3">
          <mxGeometry relative="1" as="geometry" />
        </mxCell>
        <mxCell id="1_-yXjbjCRXEXu1w30gP-4" value="构建折叠数据" style="rounded=0;whiteSpace=wrap;html=1;" vertex="1" parent="1">
          <mxGeometry x="171" y="272" width="120" height="32" as="geometry" />
        </mxCell>
        <mxCell id="1_-yXjbjCRXEXu1w30gP-18" style="edgeStyle=orthogonalEdgeStyle;rounded=0;orthogonalLoop=1;jettySize=auto;html=1;exitX=0.5;exitY=1;exitDx=0;exitDy=0;" edge="1" parent="1" source="1_-yXjbjCRXEXu1w30gP-5" target="1_-yXjbjCRXEXu1w30gP-4">
          <mxGeometry relative="1" as="geometry" />
        </mxCell>
        <mxCell id="1_-yXjbjCRXEXu1w30gP-5" value="&lt;div&gt;读取Mask 数据&lt;/div&gt;" style="rounded=0;whiteSpace=wrap;html=1;" vertex="1" parent="1">
          <mxGeometry x="171" y="206" width="120" height="33" as="geometry" />
        </mxCell>
        <mxCell id="1_-yXjbjCRXEXu1w30gP-16" style="edgeStyle=orthogonalEdgeStyle;rounded=0;orthogonalLoop=1;jettySize=auto;html=1;exitX=0.5;exitY=1;exitDx=0;exitDy=0;entryX=0.5;entryY=0;entryDx=0;entryDy=0;" edge="1" parent="1" source="1_-yXjbjCRXEXu1w30gP-6" target="1_-yXjbjCRXEXu1w30gP-15">
          <mxGeometry relative="1" as="geometry" />
        </mxCell>
        <mxCell id="1_-yXjbjCRXEXu1w30gP-6" value="&lt;div&gt;检查Excel 与 Image 的一致性&lt;/div&gt;" style="rounded=0;whiteSpace=wrap;html=1;" vertex="1" parent="1">
          <mxGeometry x="171" y="74" width="120" height="33" as="geometry" />
        </mxCell>
        <mxCell id="1_-yXjbjCRXEXu1w30gP-7" value="&lt;div&gt;Check&lt;/div&gt;" style="text;html=1;align=center;verticalAlign=middle;resizable=0;points=[];autosize=1;strokeColor=none;fillColor=none;" vertex="1" parent="1">
          <mxGeometry x="32" y="72" width="52" height="26" as="geometry" />
        </mxCell>
        <mxCell id="1_-yXjbjCRXEXu1w30gP-22" value="" style="edgeStyle=orthogonalEdgeStyle;rounded=0;orthogonalLoop=1;jettySize=auto;html=1;" edge="1" parent="1" source="1_-yXjbjCRXEXu1w30gP-8" target="1_-yXjbjCRXEXu1w30gP-21">
          <mxGeometry relative="1" as="geometry" />
        </mxCell>
        <mxCell id="1_-yXjbjCRXEXu1w30gP-8" value="提取组学特征" style="rounded=0;whiteSpace=wrap;html=1;" vertex="1" parent="1">
          <mxGeometry x="169" y="413" width="120" height="32" as="geometry" />
        </mxCell>
        <mxCell id="1_-yXjbjCRXEXu1w30gP-9" value="" style="rounded=0;whiteSpace=wrap;html=1;" vertex="1" parent="1">
          <mxGeometry x="-280" y="140" width="120" height="60" as="geometry" />
        </mxCell>
        <mxCell id="1_-yXjbjCRXEXu1w30gP-10" value="" style="rounded=0;whiteSpace=wrap;html=1;" vertex="1" parent="1">
          <mxGeometry x="-272" y="200" width="120" height="60" as="geometry" />
        </mxCell>
        <mxCell id="1_-yXjbjCRXEXu1w30gP-11" value="得到不同特征对应的系统" style="rounded=0;whiteSpace=wrap;html=1;" vertex="1" parent="1">
          <mxGeometry x="348" y="701" width="120" height="29" as="geometry" />
        </mxCell>
        <mxCell id="1_-yXjbjCRXEXu1w30gP-27" value="" style="edgeStyle=orthogonalEdgeStyle;rounded=0;orthogonalLoop=1;jettySize=auto;html=1;" edge="1" parent="1" source="1_-yXjbjCRXEXu1w30gP-12" target="1_-yXjbjCRXEXu1w30gP-11">
          <mxGeometry relative="1" as="geometry" />
        </mxCell>
        <mxCell id="1_-yXjbjCRXEXu1w30gP-12" value="Coslasso 拟合" style="rounded=0;whiteSpace=wrap;html=1;" vertex="1" parent="1">
          <mxGeometry x="348" y="638" width="120" height="30" as="geometry" />
        </mxCell>
        <mxCell id="1_-yXjbjCRXEXu1w30gP-26" value="" style="edgeStyle=orthogonalEdgeStyle;rounded=0;orthogonalLoop=1;jettySize=auto;html=1;" edge="1" parent="1" source="1_-yXjbjCRXEXu1w30gP-13" target="1_-yXjbjCRXEXu1w30gP-12">
          <mxGeometry relative="1" as="geometry" />
        </mxCell>
        <mxCell id="1_-yXjbjCRXEXu1w30gP-13" value="&lt;div&gt;合并MVI 指标&lt;/div&gt;" style="rounded=0;whiteSpace=wrap;html=1;" vertex="1" parent="1">
          <mxGeometry x="348" y="563" width="120" height="37" as="geometry" />
        </mxCell>
        <mxCell id="1_-yXjbjCRXEXu1w30gP-25" value="" style="edgeStyle=orthogonalEdgeStyle;rounded=0;orthogonalLoop=1;jettySize=auto;html=1;" edge="1" parent="1" source="1_-yXjbjCRXEXu1w30gP-14" target="1_-yXjbjCRXEXu1w30gP-13">
          <mxGeometry relative="1" as="geometry" />
        </mxCell>
        <mxCell id="1_-yXjbjCRXEXu1w30gP-14" value="堆叠组学特征" style="rounded=0;whiteSpace=wrap;html=1;" vertex="1" parent="1">
          <mxGeometry x="348" y="500" width="120" height="28" as="geometry" />
        </mxCell>
        <mxCell id="1_-yXjbjCRXEXu1w30gP-17" style="edgeStyle=orthogonalEdgeStyle;rounded=0;orthogonalLoop=1;jettySize=auto;html=1;exitX=0.5;exitY=1;exitDx=0;exitDy=0;entryX=0.5;entryY=0;entryDx=0;entryDy=0;" edge="1" parent="1" source="1_-yXjbjCRXEXu1w30gP-15" target="1_-yXjbjCRXEXu1w30gP-5">
          <mxGeometry relative="1" as="geometry" />
        </mxCell>
        <mxCell id="1_-yXjbjCRXEXu1w30gP-15" value="定位患者" style="rounded=0;whiteSpace=wrap;html=1;" vertex="1" parent="1">
          <mxGeometry x="171" y="147" width="120" height="31" as="geometry" />
        </mxCell>
        <mxCell id="1_-yXjbjCRXEXu1w30gP-23" style="edgeStyle=orthogonalEdgeStyle;rounded=0;orthogonalLoop=1;jettySize=auto;html=1;exitX=0.5;exitY=0;exitDx=0;exitDy=0;entryX=1;entryY=0.5;entryDx=0;entryDy=0;" edge="1" parent="1" source="1_-yXjbjCRXEXu1w30gP-21" target="1_-yXjbjCRXEXu1w30gP-15">
          <mxGeometry relative="1" as="geometry" />
        </mxCell>
        <mxCell id="1_-yXjbjCRXEXu1w30gP-24" value="" style="edgeStyle=orthogonalEdgeStyle;rounded=0;orthogonalLoop=1;jettySize=auto;html=1;" edge="1" parent="1" source="1_-yXjbjCRXEXu1w30gP-21" target="1_-yXjbjCRXEXu1w30gP-14">
          <mxGeometry relative="1" as="geometry" />
        </mxCell>
        <mxCell id="1_-yXjbjCRXEXu1w30gP-21" value="是否已经处理完所有患者？" style="rhombus;whiteSpace=wrap;html=1;" vertex="1" parent="1">
          <mxGeometry x="368" y="389" width="80" height="80" as="geometry" />
        </mxCell>
        <mxCell id="1_-yXjbjCRXEXu1w30gP-28" value="Y" style="text;html=1;align=center;verticalAlign=middle;resizable=0;points=[];autosize=1;strokeColor=none;fillColor=none;" vertex="1" parent="1">
          <mxGeometry x="409" y="463" width="26" height="26" as="geometry" />
        </mxCell>
        <mxCell id="1_-yXjbjCRXEXu1w30gP-29" value="N" style="text;html=1;align=center;verticalAlign=middle;resizable=0;points=[];autosize=1;strokeColor=none;fillColor=none;" vertex="1" parent="1">
          <mxGeometry x="409" y="352" width="27" height="26" as="geometry" />
        </mxCell>
      </root>
    </mxGraphModel>
  </diagram>
</mxfile>
